<svg xmlns="http://www.w3.org/2000/svg" xmlns:xlink="http://www.w3.org/1999/xlink" viewBox="0 0 512 512" width="512" height="512" preserveAspectRatio="xMidYMid meet" style="width: 100%; height: 100%; transform: translate3d(0px, 0px, 0px); content-visibility: visible;"><defs><clipPath id="__lottie_element_19"><rect width="512" height="512" x="0" y="0"/></clipPath></defs><g clip-path="url(#__lottie_element_19)"><g transform="matrix(0.9997955560684204,0,0,0.9997955560684204,256,256)" opacity="1" style="display: none;"><g opacity="1" transform="matrix(1,0,0,1,0,0)"><path fill="rgb(0,221,179)" fill-opacity="1" d=" M0,-256 C141.28640747070312,-256 256,-141.28640747070312 256,0 C256,141.28640747070312 141.28640747070312,256 0,256 C-141.28640747070312,256 -256,141.28640747070312 -256,0 C-256,-141.28640747070312 -141.28640747070312,-256 0,-256z"/></g></g><g transform="matrix(0,0.739484429359436,-0.739484429359436,0,189.4464111328125,-98.58279418945312)" opacity="1" style="display: none;"><g opacity="1" transform="matrix(1,0,0,1,0,0)"><path stroke-linecap="round" stroke-linejoin="round" fill-opacity="0" stroke="rgb(255,255,255)" stroke-opacity="1" stroke-width="68" d=" M325.635986328125,-270.5690002441406 C325.5,-59 633.5,-125 633.77001953125,89.90399932861328"/></g></g><g transform="matrix(0,0.739484429359436,-0.739484429359436,0,189.4464111328125,-98.58279418945312)" opacity="1" style="display: none;"><g opacity="1" transform="matrix(1,0,0,1,0,0)"><path stroke-linecap="round" stroke-linejoin="round" fill-opacity="0" stroke="rgb(0,221,179)" stroke-opacity="1" stroke-width="68" d="M0 0"/></g><g opacity="0.2" transform="matrix(1,0,0,1,0,0)"><path stroke-linecap="round" stroke-linejoin="round" fill-opacity="0" stroke="rgb(0,85,85)" stroke-opacity="1" stroke-width="68" d="M0 0"/></g></g><g transform="matrix(0,0.739484429359436,-0.739484429359436,0,189.4464111328125,-98.58279418945312)" opacity="1" style="display: none;"><g opacity="1" transform="matrix(1,0,0,1,0,0)"><path stroke-linecap="round" stroke-linejoin="round" fill-opacity="0" stroke="rgb(0,221,179)" stroke-opacity="1" stroke-width="68" d="M0 0"/></g><g opacity="0.4" transform="matrix(1,0,0,1,0,0)"><path stroke-linecap="round" stroke-linejoin="round" fill-opacity="0" stroke="rgb(0,85,85)" stroke-opacity="1" stroke-width="68" d="M0 0"/></g></g><g transform="matrix(0,0.739484429359436,-0.739484429359436,0,189.4464111328125,-98.58279418945312)" opacity="1" style="display: none;"><g opacity="1" transform="matrix(1,0,0,1,0,0)"><path stroke-linecap="round" stroke-linejoin="round" fill-opacity="0" stroke="rgb(0,85,85)" stroke-opacity="1" stroke-width="68" d="M0 0"/></g></g><g transform="matrix(0.9981130957603455,0,0,0.9981130957603455,256,256)" opacity="1" style="display: block;"><g opacity="1" transform="matrix(1,0,0,1,0,0)"><path fill="rgb(0,221,179)" fill-opacity="1" d=" M0,-256 C141.28640747070312,-256 256,-141.28640747070312 256,0 C256,141.28640747070312 141.28640747070312,256 0,256 C-141.28640747070312,256 -256,141.28640747070312 -256,0 C-256,-141.28640747070312 -141.28640747070312,-256 0,-256z"/></g></g><g transform="matrix(0.4200984239578247,0.6048348546028137,-0.6048348546028137,0.4200984239578247,0.1276702880859375,3.7905426025390625)" opacity="1" style="display: block;"><g opacity="1" transform="matrix(1,0,0,1,0,0)"><path stroke-linecap="round" stroke-linejoin="round" fill-opacity="0" stroke="rgb(255,255,255)" stroke-opacity="1" stroke-width="68" d=" M311.544189453125,-101.46726989746094 C324.560546875,118.55681610107422 633.5,123.015869140625 646.92236328125,-80.1371841430664"/></g></g><g transform="matrix(0.4200984239578247,0.6048348546028137,-0.6048348546028137,0.4200984239578247,0.1276702880859375,3.7905426025390625)" opacity="1" style="display: block;"><g opacity="0.5" transform="matrix(1,0,0,1,0,0)"><path stroke-linecap="round" stroke-linejoin="round" fill-opacity="0" stroke="rgb(0,221,179)" stroke-opacity="1" stroke-width="68" d="M0 0"/></g></g><g transform="matrix(0.4200984239578247,0.6048348546028137,-0.6048348546028137,0.4200984239578247,0.1276702880859375,3.7905426025390625)" opacity="1" style="display: block;"><g opacity="1" transform="matrix(1,0,0,1,0,0)"><path stroke-linecap="round" stroke-linejoin="round" fill-opacity="0" stroke="rgb(0,221,179)" stroke-opacity="1" stroke-width="68" d="M0 0"/></g><g opacity="0.4" transform="matrix(1,0,0,1,0,0)"><path stroke-linecap="round" stroke-linejoin="round" fill-opacity="0" stroke="rgb(0,85,85)" stroke-opacity="1" stroke-width="68" d="M0 0"/></g></g><g transform="matrix(0.4200984239578247,0.6048348546028137,-0.6048348546028137,0.4200984239578247,0.1276702880859375,3.7905426025390625)" opacity="0.13389151415625186" style="display: block;"><g opacity="1" transform="matrix(1,0,0,1,0,0)"><path stroke-linecap="round" stroke-linejoin="round" fill-opacity="0" stroke="rgb(0,85,85)" stroke-opacity="1" stroke-width="68" d=" M644.6909790039062,-60.94599914550781 C645.7319946289062,-67.10700225830078 646.4810180664062,-73.48699951171875 646.9190063476562,-80.08599853515625"/></g></g></g></svg>